<?xml version="1.0" encoding="utf-8"?>
<!-- Generator: Adobe Illustrator 17.0.0, SVG Export Plug-In . SVG Version: 6.00 Build 0)  -->
<!DOCTYPE svg PUBLIC "-//W3C//DTD SVG 1.1//EN" "http://www.w3.org/Graphics/SVG/1.1/DTD/svg11.dtd">
<svg version="1.1" xmlns="http://www.w3.org/2000/svg" xmlns:xlink="http://www.w3.org/1999/xlink" x="0px" y="0px" width="100px"
	 height="100px" viewBox="0 0 100 100" enable-background="new 0 0 100 100" xml:space="preserve">
<pattern  width="71.036" height="43.669" patternUnits="userSpaceOnUse" id="New_Pattern" viewBox="9.974 -50.504 71.036 43.669" overflow="visible">
	<g>
		<polygon fill="none" points="9.974,-50.504 81.01,-50.504 81.01,-6.835 9.974,-6.835 		"/>
		<path fill="#FFFFFF" d="M90.984-6.835c0,0-4.274,6.835-9.974,6.835c-5.7,0-9.974-6.835-9.974-6.835s4.274-6.834,9.974-6.834
			C86.709-13.669,90.984-6.835,90.984-6.835z M85.284-6.835c0-2.265-1.914-4.101-4.274-4.101c-2.36,0-4.274,1.836-4.274,4.101
			c0,2.264,1.913,4.101,4.274,4.101S85.284-4.571,85.284-6.835z M83.218-6.835c0,1.171-0.989,2.118-2.208,2.118
			c-1.219,0-2.208-0.947-2.208-2.118s0.989-2.118,2.208-2.118C82.229-8.953,83.218-8.006,83.218-6.835z"/>
		<path fill="#FFFFFF" d="M19.948-6.835c0,0-4.274,6.835-9.974,6.835S0-6.835,0-6.835s4.274-6.834,9.974-6.834
			C15.673-13.669,19.948-6.835,19.948-6.835z M14.248-6.835c0-2.265-1.914-4.101-4.274-4.101S5.7-9.1,5.7-6.835
			c0,2.264,1.913,4.101,4.274,4.101S14.248-4.571,14.248-6.835z M12.182-6.835c0,1.171-0.989,2.118-2.208,2.118
			S7.766-5.664,7.766-6.835s0.989-2.118,2.208-2.118S12.182-8.006,12.182-6.835z"/>
		<path fill="#FFFFFF" d="M90.984-50.504c0,0-4.274,6.835-9.974,6.835c-5.7,0-9.974-6.835-9.974-6.835s4.274-6.834,9.974-6.834
			C86.709-57.338,90.984-50.504,90.984-50.504z M85.284-50.504c0-2.265-1.914-4.101-4.274-4.101c-2.36,0-4.274,1.836-4.274,4.101
			c0,2.264,1.913,4.101,4.274,4.101S85.284-48.24,85.284-50.504z M83.218-50.504c0,1.171-0.989,2.118-2.208,2.118
			c-1.219,0-2.208-0.947-2.208-2.118c0-1.171,0.989-2.118,2.208-2.118C82.229-52.622,83.218-51.675,83.218-50.504z"/>
		<path fill="#FFFFFF" d="M55.466-28.669c0,0-4.274,6.835-9.974,6.835s-9.974-6.835-9.974-6.835s4.274-6.834,9.974-6.834
			C51.191-35.503,55.466-28.669,55.466-28.669z M49.766-28.669c0-2.265-1.914-4.101-4.274-4.101s-4.274,1.836-4.274,4.101
			c0,2.264,1.913,4.101,4.274,4.101S49.766-26.405,49.766-28.669z M47.7-28.669c0,1.171-0.989,2.118-2.208,2.118
			s-2.208-0.947-2.208-2.118s0.989-2.118,2.208-2.118S47.7-29.84,47.7-28.669z"/>
		<path fill="#FFFFFF" d="M19.948-50.504c0,0-4.274,6.835-9.974,6.835S0-50.504,0-50.504s4.274-6.834,9.974-6.834
			C15.673-57.338,19.948-50.504,19.948-50.504z M14.248-50.504c0-2.265-1.914-4.101-4.274-4.101S5.7-52.769,5.7-50.504
			c0,2.264,1.913,4.101,4.274,4.101S14.248-48.24,14.248-50.504z M12.182-50.504c0,1.171-0.989,2.118-2.208,2.118
			s-2.208-0.947-2.208-2.118c0-1.171,0.989-2.118,2.208-2.118S12.182-51.675,12.182-50.504z"/>
	</g>
</pattern>
<g id="Layer_1">
	<rect opacity="0.4" fill="url(#New_Pattern)" width="100" height="100"/>
</g>
<g id="Layer_2">
</g>
</svg>
