<?xml version="1.0" encoding="UTF-8" standalone="no"?>
<svg width="18px" height="18px" viewBox="0 0 18 18" version="1.1" xmlns="http://www.w3.org/2000/svg" xmlns:xlink="http://www.w3.org/1999/xlink">
    <!-- Generator: Sketch 3.7.2 (28276) - http://www.bohemiancoding.com/sketch -->
    <title>Fill 1</title>
    <desc>Created with Sketch.</desc>
    <defs>
        <filter x="-50%" y="-50%" width="200%" height="200%" filterUnits="objectBoundingBox" id="filter-1">
            <feOffset dx="0" dy="3" in="SourceAlpha" result="shadowOffsetOuter1"></feOffset>
            <feColorMatrix values="0 0 0 0 0   0 0 0 0 0   0 0 0 0 0  0 0 0 0.2 0" type="matrix" in="shadowOffsetOuter1" result="shadowMatrixOuter1"></feColorMatrix>
            <feMerge>
                <feMergeNode in="shadowMatrixOuter1"></feMergeNode>
                <feMergeNode in="SourceGraphic"></feMergeNode>
            </feMerge>
        </filter>
    </defs>
    <g id="Page-1" stroke="none" stroke-width="1" fill="none" fill-rule="evenodd">
        <g id="vorm-3-copy" transform="translate(-315.000000, -410.000000)" stroke="#FECA00" fill="#FECA00">
            <g id="artikel" filter="url(#filter-1)" transform="translate(0.000000, 238.000000)">
                <path d="M323.705559,184.577537 C323.708294,184.51502 323.71131,184.478291 323.711335,184.441537 C323.711642,181.306943 323.712383,178.172349 323.709623,175.037755 C323.709495,174.89447 323.698096,174.745001 323.656895,174.609052 C323.460115,173.960004 322.973725,173.593333 322.293879,173.590598 C320.862875,173.584847 319.431847,173.58771 318.000843,173.589422 C317.529891,173.589985 317.14055,173.766905 316.855054,174.148758 C316.656128,174.414777 316.58377,174.718956 316.584026,175.047978 C316.585815,177.539454 316.585022,180.030956 316.585073,182.522457 C316.585073,182.57355 316.58354,182.624796 316.586454,182.675735 C316.617661,183.22109 316.866377,183.626534 317.354735,183.88302 C317.573725,183.998036 317.807182,184.023058 318.047489,184.023058 C319.440179,184.023032 320.832869,184.023671 322.225559,184.022624 C322.689252,184.022266 323.11862,184.129333 323.493955,184.413397 C323.559387,184.46293 323.623668,184.513946 323.705559,184.577537 L323.705559,184.577537 Z M324.289764,184.584847 C324.371016,184.518751 324.426863,184.470521 324.485546,184.426074 C324.874914,184.131122 325.31931,184.020732 325.801712,184.021857 C327.17738,184.025052 328.553048,184.024745 329.928716,184.020758 C330.09324,184.020272 330.264613,184.01263 330.420882,183.967262 C331.044115,183.786304 331.414134,183.270266 331.414492,182.598138 C331.415796,180.068247 331.415565,177.538381 331.413265,175.008515 C331.413137,174.881818 331.406645,174.749755 331.371527,174.629397 C331.178428,173.967237 330.691681,173.593895 329.998901,173.590854 C328.567898,173.584592 327.136818,173.587889 325.705789,173.589806 C325.397035,173.59024 325.109546,173.666406 324.857329,173.855595 C324.453495,174.15847 324.289022,174.570534 324.289201,175.064055 C324.290224,178.185946 324.289738,181.307812 324.289764,184.429703 L324.289764,184.584847 Z M332,182.888822 C331.9257,183.113716 331.882019,183.355096 331.771476,183.560489 C331.393508,184.262649 330.789419,184.608183 329.991872,184.609001 C328.578326,184.610432 327.164754,184.610176 325.751208,184.608924 C325.311591,184.60854 324.934927,184.750879 324.637265,185.082202 C324.458837,185.280822 324.365802,185.518879 324.305661,185.775211 C324.258709,185.975441 324.094518,186.063799 323.897406,186.008413 C323.77099,185.972911 323.714812,185.881077 323.68938,185.759876 C323.637061,185.510649 323.539911,185.282483 323.368818,185.089358 C323.073304,184.755812 322.698147,184.609205 322.258224,184.609358 C320.844677,184.60987 319.431105,184.608004 318.017559,184.610355 C317.565444,184.611122 317.152843,184.497742 316.787911,184.224183 C316.373495,183.913563 316.129457,183.498892 316.027808,182.995275 C316.022211,182.967569 316.009431,182.94132 316,182.914381 L316,174.709908 C316.01462,174.657512 316.031463,174.605652 316.04345,174.552668 C316.102185,174.29263 316.199387,174.048592 316.357316,173.832924 C316.763067,173.278828 317.313355,173.004937 317.998288,173.00417 C319.429061,173.00256 320.859834,173.003173 322.290607,173.003684 C322.804294,173.003863 323.262185,173.160949 323.642812,173.510956 C323.772524,173.63024 323.881815,173.771684 324.000818,173.903441 C324.007744,173.900655 324.017712,173.899659 324.022543,173.894163 C324.039335,173.87502 324.054952,173.854751 324.069955,173.834151 C324.468473,173.28601 325.010377,173.008208 325.684192,173.00555 C327.13623,172.999825 328.588345,172.996068 330.040332,173.007007 C330.815029,173.012834 331.404294,173.367544 331.770888,174.052783 C331.879003,174.254854 331.925367,174.489946 332,174.709908 L332,182.888822 Z" id="Fill-1"></path>
            </g>
        </g>
    </g>
</svg>