<?xml version="1.0" encoding="utf-8"?>
<!-- Generator: Adobe Illustrator 17.0.0, SVG Export Plug-In . SVG Version: 6.00 Build 0)  -->
<!DOCTYPE svg PUBLIC "-//W3C//DTD SVG 1.1//EN" "http://www.w3.org/Graphics/SVG/1.1/DTD/svg11.dtd">
<svg version="1.1" id="Layer_1" xmlns="http://www.w3.org/2000/svg" xmlns:xlink="http://www.w3.org/1999/xlink" x="0px" y="0px"
	 width="20px" height="15px" viewBox="0 0 20 15" enable-background="new 0 0 20 15" xml:space="preserve">
<path fill="#002C89" d="M10.026,0.831c-5.7,0-9.974,6.834-9.974,6.834S4.326,14.5,10.026,14.5S20,7.665,20,7.665
	S15.725,0.831,10.026,0.831z M10.026,11.766c-2.361,0-4.274-1.837-4.274-4.101c0-2.265,1.914-4.101,4.274-4.101S14.3,5.4,14.3,7.665
	C14.3,9.929,12.387,11.766,10.026,11.766z M10.026,5.547c-1.219,0-2.208,0.947-2.208,2.118s0.989,2.118,2.208,2.118
	s2.208-0.947,2.208-2.118S11.245,5.547,10.026,5.547z"/>
</svg>
