<?xml version="1.0" encoding="UTF-8" standalone="no"?>
<svg width="48px" height="19px" viewBox="0 0 48 19" version="1.1" xmlns="http://www.w3.org/2000/svg" xmlns:xlink="http://www.w3.org/1999/xlink">
    <!-- Generator: Sketch 3.7.2 (28276) - http://www.bohemiancoding.com/sketch -->
    <title>Fill 1</title>
    <desc>Created with Sketch.</desc>
    <defs></defs>
    <g id="Page-1" stroke="none" stroke-width="1" fill="none" fill-rule="evenodd">
        <path d="M40.0189642,11.0045635 L39.7360447,11.0045635 C36.5760904,11.0045635 33.4161362,11.0086877 30.2561819,10.9996144 C29.8363393,10.9979648 29.4098981,10.960847 28.9966543,10.8866116 C27.9482852,10.6977237 27.1003518,10.1409581 26.3588224,9.39612941 C24.6654301,7.69696317 22.9670887,6.0035708 21.2703969,4.30852876 C21.163168,4.20129982 21.0551142,4.09572056 20.9429363,3.99509033 C20.6575423,3.7360912 20.3267823,3.61813937 19.9358091,3.61896421 C16.9210263,3.62473807 13.9062435,3.6230884 10.8906358,3.61978905 C10.7603114,3.61978905 10.6679296,3.65525708 10.5755477,3.75011345 C9.45789225,4.90488662 8.3361126,6.0555356 7.21515779,7.20783425 C7.17474073,7.24907615 7.13762302,7.2936174 7.07163598,7.36785282 L7.31908738,7.36785282 L16.7981254,7.36785282 C17.3928336,7.36785282 17.9801182,7.42064245 18.5525558,7.59468326 C19.4136866,7.8561569 20.1164486,8.36095774 20.7449751,8.99030912 C22.4433165,10.6927747 24.151556,12.3853422 25.841649,14.0952314 C26.2210745,14.4804307 26.6442164,14.6536467 27.1795362,14.651997 C30.1885451,14.6429238 33.1967293,14.647048 36.2057382,14.6503473 C36.3385371,14.6511722 36.4284445,14.6115799 36.5216511,14.5183732 C37.6335327,13.4007178 38.7495385,12.2871865 39.8647195,11.1720056 C39.9059614,11.1307637 39.9439039,11.0862224 40.0189642,11.0045635 M47.0903002,9.09918773 L47.0903002,9.17177348 C47.0144151,9.23611084 46.9327561,9.29467433 46.8626449,9.36478556 C44.7353877,11.5143133 42.6089554,13.6630163 40.483348,15.8141937 C39.6395387,16.667901 38.798204,17.5240828 37.9552195,18.3794398 L26.5361626,18.3794398 C26.5081181,18.3687169 26.4817233,18.3522202 26.4536788,18.3489208 C25.2056989,18.2037493 24.1787756,17.6304869 23.3093964,16.7421364 C21.631676,15.0281231 19.9440575,13.3240079 18.2770599,11.6009213 C17.8778383,11.1885023 17.426652,11.0004393 16.8616379,11.0012641 C13.6662156,11.0078628 10.4707933,11.0045635 7.27537096,11.0053883 C7.22010682,11.0053883 7.16566751,11.011987 7.07823469,11.016936 C7.14752108,11.0903466 7.18793814,11.1348879 7.22918004,11.1761298 C9.1353806,13.0806807 11.0407563,14.9852315 12.9461321,16.8897824 C13.4410348,17.3846852 13.934288,17.8828874 14.4283659,18.3794398 L9.24425922,18.3794398 C6.20143192,15.3357877 3.15777978,12.2913107 0.114127641,9.24848341 C0.0819589598,9.21631473 0.038242547,9.19734345 0.0003,9.17177348 L0.0003,9.09918773 C0.0464909268,9.0637197 0.0976308814,9.03320069 0.13887278,8.99278363 C3.13138496,6.03738916 6.12224747,3.08116985 9.11310998,0.124125697 C9.14940285,0.0878328256 9.1766225,0.0416418989 9.20796635,0.0004 L20.5907304,0.0004 C20.8027138,0.0424667369 21.015522,0.0779347699 21.2258557,0.128249887 C22.2123619,0.362503872 23.0322509,0.88132696 23.7424364,1.59316214 C25.4960419,3.35089187 27.2488226,5.10779676 29.0115014,6.85562843 C29.3249398,7.16659235 29.710964,7.36785282 30.1745229,7.36785282 C33.3872668,7.36702798 36.6000108,7.36785282 39.8135795,7.36702798 C39.8688437,7.36702798 39.9249326,7.36042928 39.9801968,7.35712992 C39.98927,7.33980833 39.9983432,7.32248673 40.0074164,7.30516513 C39.9505026,7.26144872 39.8878149,7.22268133 39.8374998,7.17236622 C37.4454697,4.78198576 35.0542644,2.39078046 32.6622342,0.0004 L37.9552195,0.0004 C37.9675921,0.0135974076 37.9791398,0.0276196533 37.9915124,0.0399922229 C40.9823749,3.02838022 43.9732374,6.01676821 46.9649248,9.00433137 C47.0012177,9.04144907 47.0482334,9.06784389 47.0903002,9.09918773" id="Fill-1" fill="#002C89"></path>
    </g>
</svg>